<svg width="512" height="512" viewBox="0 0 512 512" fill="none" xmlns="http://www.w3.org/2000/svg">
  <defs>
    <linearGradient id="bg" x1="64" y1="40" x2="456" y2="472" gradientUnits="userSpaceOnUse">
      <stop stop-color="#050816"/>
      <stop offset="0.55" stop-color="#0C2B22"/>
      <stop offset="1" stop-color="#04110D"/>
    </linearGradient>
    <radialGradient id="glow" cx="0" cy="0" r="1" gradientUnits="userSpaceOnUse" gradientTransform="translate(360 134) rotate(124.001) scale(250.659)">
      <stop stop-color="#5BFF9A" stop-opacity="0.42"/>
      <stop offset="1" stop-color="#5BFF9A" stop-opacity="0"/>
    </radialGradient>
    <linearGradient id="ring" x1="148" y1="366" x2="350" y2="164" gradientUnits="userSpaceOnUse">
      <stop stop-color="#1DFF8B"/>
      <stop offset="1" stop-color="#AEFFD2"/>
    </linearGradient>
    <filter id="softGlow" x="72" y="72" width="368" height="368" filterUnits="userSpaceOnUse" color-interpolation-filters="sRGB">
      <feFlood flood-opacity="0" result="BackgroundImageFix"/>
      <feBlend mode="normal" in="SourceGraphic" in2="BackgroundImageFix" result="shape"/>
      <feGaussianBlur stdDeviation="10" result="effect1_foregroundBlur"/>
    </filter>
    <filter id="ballGlow" x="258" y="102" width="148" height="148" filterUnits="userSpaceOnUse" color-interpolation-filters="sRGB">
      <feFlood flood-opacity="0" result="BackgroundImageFix"/>
      <feBlend mode="normal" in="SourceGraphic" in2="BackgroundImageFix" result="shape"/>
      <feGaussianBlur stdDeviation="8" result="effect1_foregroundBlur"/>
    </filter>
  </defs>

  <rect x="16" y="16" width="480" height="480" rx="112" fill="url(#bg)"/>
  <rect x="16.75" y="16.75" width="478.5" height="478.5" rx="111.25" stroke="rgba(145,255,198,0.18)" stroke-width="1.5"/>
  <rect x="40" y="40" width="432" height="432" rx="92" fill="url(#glow)"/>

  <g opacity="0.18">
    <path d="M88 392C162 352 226 302 296 220C334 176 376 136 424 110" stroke="#79FFB5" stroke-width="2.5" stroke-linecap="round" stroke-dasharray="6 10"/>
    <path d="M96 420C170 380 256 320 332 232" stroke="#79FFB5" stroke-width="1.5" stroke-linecap="round" stroke-dasharray="4 11"/>
  </g>

  <g filter="url(#softGlow)">
    <circle cx="220" cy="292" r="94" stroke="url(#ring)" stroke-width="18"/>
    <circle cx="220" cy="292" r="52" stroke="#D6FFE9" stroke-opacity="0.88" stroke-width="10"/>
    <path d="M167 292L205 330L290 245" stroke="#CFFFF0" stroke-width="20" stroke-linecap="round" stroke-linejoin="round"/>
  </g>

  <g filter="url(#ballGlow)">
    <circle cx="332" cy="176" r="46" fill="#F4FFF8" fill-opacity="0.98"/>
    <path d="M332 145L350 158L343 180H321L314 158L332 145Z" fill="#0B241C"/>
    <path d="M321 180L308 195L314 215L332 222L350 215L356 195L343 180" stroke="#0B241C" stroke-width="8" stroke-linejoin="round"/>
    <path d="M314 158L296 164M350 158L368 164M308 195L294 208M356 195L370 208M332 222V238" stroke="#0B241C" stroke-width="8" stroke-linecap="round"/>
  </g>

  <path d="M226 286C250 272 276 247 300 220C311 207 322 194 332 176" stroke="#63FFA4" stroke-width="12" stroke-linecap="round"/>
  <circle cx="220" cy="292" r="138" stroke="#89FFC0" stroke-opacity="0.08" stroke-width="2"/>
</svg>
