<svg width="640" height="360" viewBox="0 0 640 360" fill="none" xmlns="http://www.w3.org/2000/svg">
  <defs>
    <linearGradient id="bg" x1="22" y1="18" x2="582" y2="333" gradientUnits="userSpaceOnUse">
      <stop stop-color="#04060D"/>
      <stop offset="0.52" stop-color="#0C2C22"/>
      <stop offset="1" stop-color="#06120E"/>
    </linearGradient>
    <radialGradient id="heroGlow" cx="0" cy="0" r="1" gradientUnits="userSpaceOnUse" gradientTransform="translate(500 108) rotate(140.042) scale(211.911)">
      <stop stop-color="#68FFAB" stop-opacity="0.45"/>
      <stop offset="1" stop-color="#68FFAB" stop-opacity="0"/>
    </radialGradient>
    <linearGradient id="panel" x1="70" y1="74" x2="324" y2="292" gradientUnits="userSpaceOnUse">
      <stop stop-color="#0D111B" stop-opacity="0.96"/>
      <stop offset="1" stop-color="#081510" stop-opacity="0.9"/>
    </linearGradient>
    <linearGradient id="accent" x1="347" y1="260" x2="531" y2="112" gradientUnits="userSpaceOnUse">
      <stop stop-color="#21FF8C"/>
      <stop offset="1" stop-color="#B6FFD7"/>
    </linearGradient>
    <filter id="shadow" x="42" y="46" width="288" height="268" filterUnits="userSpaceOnUse" color-interpolation-filters="sRGB">
      <feFlood flood-opacity="0" result="BackgroundImageFix"/>
      <feColorMatrix in="SourceAlpha" type="matrix" values="0 0 0 0 0 0 0 0 0 0 0 0 0 0 0 0 0 0 127 0" result="hardAlpha"/>
      <feOffset dx="0" dy="12"/>
      <feGaussianBlur stdDeviation="14"/>
      <feComposite in2="hardAlpha" operator="out"/>
      <feColorMatrix type="matrix" values="0 0 0 0 0.0117647 0 0 0 0 0.0784314 0 0 0 0 0.0588235 0 0 0 0.42 0"/>
      <feBlend mode="normal" in2="BackgroundImageFix" result="effect1_dropShadow"/>
      <feBlend mode="normal" in="SourceGraphic" in2="effect1_dropShadow" result="shape"/>
    </filter>
  </defs>

  <rect width="640" height="360" rx="32" fill="url(#bg)"/>
  <rect width="640" height="360" rx="32" fill="url(#heroGlow)"/>

  <g opacity="0.18">
    <path d="M18 292H622" stroke="#87FFC0" stroke-width="2"/>
    <path d="M18 226H622" stroke="#87FFC0" stroke-width="1.2" stroke-dasharray="6 12"/>
    <path d="M18 160H622" stroke="#87FFC0" stroke-width="1.2" stroke-dasharray="6 12"/>
    <path d="M18 94H622" stroke="#87FFC0" stroke-width="1.2" stroke-dasharray="6 12"/>
    <path d="M510 60V324" stroke="#87FFC0" stroke-width="1.2" stroke-dasharray="6 12"/>
  </g>

  <g filter="url(#shadow)">
    <rect x="70" y="72" width="240" height="216" rx="26" fill="url(#panel)"/>
    <rect x="70.75" y="72.75" width="238.5" height="214.5" rx="25.25" stroke="#8DFFC4" stroke-opacity="0.18" stroke-width="1.5"/>
  </g>

  <text x="96" y="109" fill="#5CFF9E" font-family="Arial, Helvetica, sans-serif" font-size="13" font-weight="700" letter-spacing="3">ETHCC 2026</text>
  <text x="96" y="156" fill="#F6FFF9" font-family="Arial, Helvetica, sans-serif" font-size="46" font-weight="800">Predict It!</text>
  <text x="96" y="188" fill="#B8C8BF" font-family="Arial, Helvetica, sans-serif" font-size="18">Predict Real Sports Moments</text>

  <rect x="96" y="214" width="95" height="32" rx="16" fill="#0E221A"/>
  <rect x="204" y="214" width="108" height="32" rx="16" fill="#0E221A"/>
  <text x="122" y="235" fill="#B9FFD8" font-family="Arial, Helvetica, sans-serif" font-size="14" font-weight="700">LEFT / RIGHT</text>
  <text x="231" y="235" fill="#B9FFD8" font-family="Arial, Helvetica, sans-serif" font-size="14" font-weight="700">GOAL / MISS</text>

  <text x="96" y="269" fill="#7D8F86" font-family="Arial, Helvetica, sans-serif" font-size="13">Lock your pick before the play resolves.</text>

  <g opacity="0.8">
    <rect x="418" y="74" width="126" height="34" rx="17" fill="#0A1713"/>
    <circle cx="441" cy="91" r="6" fill="#34F58B"/>
    <text x="455" y="96" fill="#D9FFE9" font-family="Arial, Helvetica, sans-serif" font-size="13" font-weight="700">LIVE PREDICTION</text>
  </g>

  <g opacity="0.95">
    <rect x="451" y="147" width="104" height="34" rx="17" fill="#0A1713"/>
    <text x="474" y="169" fill="#BBFFD9" font-family="Arial, Helvetica, sans-serif" font-size="15" font-weight="700">WAGER 10 USDC</text>
  </g>

  <g opacity="0.92">
    <rect x="404" y="253" width="78" height="32" rx="16" fill="#13211B"/>
    <rect x="493" y="253" width="78" height="32" rx="16" fill="#13211B"/>
    <text x="432" y="274" fill="#C9FFE0" font-family="Arial, Helvetica, sans-serif" font-size="14" font-weight="700">LEFT</text>
    <text x="522" y="274" fill="#C9FFE0" font-family="Arial, Helvetica, sans-serif" font-size="14" font-weight="700">GOAL</text>
  </g>

  <path d="M362 286C385 257 407 231 430 205C450 183 469 158 490 132C499 121 509 109 519 97" stroke="url(#accent)" stroke-width="10" stroke-linecap="round"/>
  <path d="M352 300C377 269 400 243 425 217C449 191 470 166 493 138C504 125 514 112 525 98" stroke="#CFFFF0" stroke-opacity="0.18" stroke-width="22" stroke-linecap="round"/>

  <circle cx="525" cy="98" r="30" fill="#F4FFF8"/>
  <path d="M525 77L538 86L533 102H517L512 86L525 77Z" fill="#0B241C"/>
  <path d="M517 102L507 113L512 128L525 133L538 128L543 113L533 102" stroke="#0B241C" stroke-width="5" stroke-linejoin="round"/>
  <path d="M512 86L499 90M538 86L551 90M507 113L497 122M543 113L553 122M525 133V145" stroke="#0B241C" stroke-width="5" stroke-linecap="round"/>

  <g opacity="0.85">
    <path d="M559 128V235" stroke="#B7FFD8" stroke-width="5"/>
    <path d="M506 235H559" stroke="#B7FFD8" stroke-width="5"/>
    <path d="M506 149H559" stroke="#B7FFD8" stroke-width="5"/>
    <path d="M506 149V235" stroke="#B7FFD8" stroke-width="2.5" stroke-opacity="0.65"/>
    <path d="M519 160V235M532 156V235M545 160V235" stroke="#B7FFD8" stroke-width="1.5" stroke-opacity="0.32"/>
  </g>

  <circle cx="492" cy="132" r="56" stroke="#74FFB2" stroke-opacity="0.16" stroke-width="2"/>
  <circle cx="492" cy="132" r="84" stroke="#74FFB2" stroke-opacity="0.08" stroke-width="2"/>
</svg>
